<?xml version="1.0" standalone="no"?><!DOCTYPE svg PUBLIC "-//W3C//DTD SVG 1.1//EN" "http://www.w3.org/Graphics/SVG/1.1/DTD/svg11.dtd"><svg t="1589042035206" class="icon" viewBox="0 0 1024 1024" version="1.1" xmlns="http://www.w3.org/2000/svg" p-id="6711" xmlns:xlink="http://www.w3.org/1999/xlink" width="200" height="200"><defs><style type="text/css"></style></defs><path d="M1023.3604 468.571143v86.218114a36.521174 36.521174 0 0 1-29.421612 35.817614l-111.418363 22.322048a36.585134 36.585134 0 0 0-27.183011 23.60125 342.058214 342.058214 0 0 1-12.472205 29.805371 36.713054 36.713054 0 0 0 2.622361 36.009494l63.128545 94.532917a36.521174 36.521174 0 0 1-4.605122 46.179138l-61.081824 60.953904a36.521174 36.521174 0 0 1-46.051218 4.605122l-94.532917-63.128545a36.713054 36.713054 0 0 0-36.009494-2.558401 332.33629 332.33629 0 0 1-29.805371 12.280325 36.713054 36.713054 0 0 0-23.66521 27.310931l-22.258088 111.482323a36.521174 36.521174 0 0 1-35.817614 29.357652H468.571143a36.521174 36.521174 0 0 1-35.817614-29.421612l-22.322049-111.418363a36.585134 36.585134 0 0 0-23.537289-27.183011 334.319051 334.319051 0 0 1-29.869332-12.472205 36.713054 36.713054 0 0 0-36.009494 2.622361l-94.532917 63.128545a36.521174 36.521174 0 0 1-46.051218-4.605122l-61.081823-61.081824a36.521174 36.521174 0 0 1-4.605122-46.051218l63.128544-94.532917a36.713054 36.713054 0 0 0 2.558401-36.009494 332.33629 332.33629 0 0 1-12.280324-29.805371 36.713054 36.713054 0 0 0-27.310931-23.66521L29.421611 590.670831A36.521174 36.521174 0 0 1 0 554.789257V468.571143c0-17.461087 12.280325-32.427733 29.421611-35.817614l111.418364-22.322049a36.713054 36.713054 0 0 0 27.183011-23.537289c3.709681-10.169644 7.867083-20.147408 12.472205-29.869332a36.968894 36.968894 0 0 0-2.622362-36.009494l-63.128544-94.532917a36.521174 36.521174 0 0 1 4.605122-46.051218l61.081823-61.081823a36.521174 36.521174 0 0 1 46.051218-4.605122l94.532917 63.128544c10.745284 7.035603 24.36877 8.058963 36.009494 2.558401 9.721924-4.541162 19.635728-8.634603 29.805372-12.280324 12.152405-4.349282 21.106808-14.710806 23.665209-27.310931L432.689569 29.421611A36.521174 36.521174 0 0 1 468.571143 0h86.218114c17.461087 0 32.427733 12.280325 35.817614 29.421611l22.322048 111.418364c2.558401 12.600125 11.512804 22.897689 23.60125 27.183011 10.105684 3.709681 20.083448 7.867083 29.805371 12.472205 11.640725 5.436602 25.26421 4.477202 36.009494-2.622362l94.532917-63.128544a36.521174 36.521174 0 0 1 46.179138 4.605122l60.953904 61.081823a36.521174 36.521174 0 0 1 4.605122 46.051218l-63.128545 94.532917a36.713054 36.713054 0 0 0-2.558401 36.009494c4.477202 9.721924 8.634603 19.699688 12.280325 29.805372 4.349282 12.152405 14.710806 21.106808 27.310931 23.665209l111.482323 22.258089c17.077327 3.389881 29.357651 18.356527 29.357652 35.817614zM511.6802 671.580262a159.900062 159.900062 0 1 0 0-319.800125 159.900062 159.900062 0 0 0 0 319.800125z" p-id="6712"></path></svg>