<?xml version="1.0" standalone="no"?><!DOCTYPE svg PUBLIC "-//W3C//DTD SVG 1.1//EN" "http://www.w3.org/Graphics/SVG/1.1/DTD/svg11.dtd"><svg t="1587210892534" class="icon" viewBox="0 0 1024 1024" version="1.1" xmlns="http://www.w3.org/2000/svg" p-id="12896" xmlns:xlink="http://www.w3.org/1999/xlink" width="128" height="128"><defs><style type="text/css"></style></defs><path d="M1004.544 924.032l-90.496-90.752a57.216 57.216 0 0 0-41.024-17.088 57.216 57.216 0 0 0-40.96 17.088 58.56 58.56 0 0 0 0 82.432l90.368 90.88a57.856 57.856 0 0 0 82.112-0.128 58.56 58.56 0 0 0 0-82.432zM927.424 464.64a464 464 0 0 0-135.424-328.32A460.544 460.544 0 0 0 464.96 0.32a460.48 460.48 0 0 0-327.04 136A464 464 0 0 0 2.56 464.64a464 464 0 0 0 135.424 328.32 460.032 460.032 0 0 0 327.04 136.064 460.928 460.928 0 0 0 327.04-136.064 464 464 0 0 0 135.424-328.32z m-203.2 256.896l-1.792 1.792a361.408 361.408 0 0 1-257.472 107.008c-97.28 0-188.8-38.08-257.472-107.136a364.032 364.032 0 0 1-106.624-258.432c0-97.6 37.888-189.312 106.624-258.432a360.96 360.96 0 0 1 257.472-107.072c96.832 0 187.904 37.696 256.768 106.496l2.496 1.216v1.28a363.712 363.712 0 0 1 104.832 256.64 363.712 363.712 0 0 1-104.832 256.64z m-67.072-295.04a57.92 57.92 0 0 0-54.272 39.936l-13.632 44.096L499.2 255.04c-13.248-37.76-60.096-42.496-81.152-8.96L294.336 442.752H197.76a39.168 39.168 0 0 0-0.128 78.208H302.72c20.608 0 42.176-11.84 53.12-29.44l92.224-146.432 101.44 290.688c15.04 42.624 70.144 40.64 83.264-1.664l40.192-129.28h46.08a39.168 39.168 0 0 0 0.128-78.208h-62.08v-0.128z" p-id="12897"></path></svg>