<?xml version="1.0" standalone="no"?><!DOCTYPE svg PUBLIC "-//W3C//DTD SVG 1.1//EN" "http://www.w3.org/Graphics/SVG/1.1/DTD/svg11.dtd"><svg t="1587113732237" class="icon" viewBox="0 0 1024 1024" version="1.1" xmlns="http://www.w3.org/2000/svg" p-id="10394" xmlns:xlink="http://www.w3.org/1999/xlink" width="128" height="128"><defs><style type="text/css"></style></defs><path d="M619.52 0H444.928L156.16 289.28h175.104L619.52 0zM1024 162.816l-126.464 126.464H1024V162.816zM650.752 289.28h174.592L1024 91.136A102.4 102.4 0 0 0 937.472 0zM372.736 0H197.632L0 198.144v91.136h83.968L372.736 0zM866.816 0h-174.592L403.456 289.28h174.592L866.816 0zM125.44 0H102.4a102.4 102.4 0 0 0-102.4 102.4v23.04zM0 340.48V921.6a102.4 102.4 0 0 0 102.4 102.4h819.2a102.4 102.4 0 0 0 102.4-102.4V340.48z m635.904 379.392l-204.8 117.248a44.032 44.032 0 0 1-66.048-37.888V563.2a44.032 44.032 0 0 1 66.048-38.4l204.8 117.76a44.032 44.032 0 0 1 0 77.312z" p-id="10395"></path></svg>