<?xml version="1.0" standalone="no"?><!DOCTYPE svg PUBLIC "-//W3C//DTD SVG 1.1//EN" "http://www.w3.org/Graphics/SVG/1.1/DTD/svg11.dtd"><svg t="1589041813817" class="icon" viewBox="0 0 1024 1024" version="1.1" xmlns="http://www.w3.org/2000/svg" p-id="2166" xmlns:xlink="http://www.w3.org/1999/xlink" width="200" height="200"><defs><style type="text/css"></style></defs><path d="M167.4 340.1l-40 69.3-107.4-62c-19.1-11-25.7-35.5-14.6-54.6 11-19.1 35.5-25.7 54.6-14.6l107.4 61.9zM856.6 340.1l40 69.3 107.4-62c19.1-11 25.7-35.5 14.6-54.6-11-19.1-35.5-25.7-54.6-14.6l-107.4 61.9zM688.1 200.6l69.3 40 62-107.4c11-19.1 4.5-43.6-14.6-54.6s-43.6-4.5-54.6 14.6l-62.1 107.4zM472 164h80V40c0-22.1-17.9-40-40-40s-40 17.9-40 40v124zM267.4 240.1l69.3-40-62-107.4c-11-19.1-35.5-25.7-54.6-14.6-19.1 11-25.7 35.5-14.6 54.6l61.9 107.4zM984 944H872V584c0-198-162-360-360-360S152 386 152 584v360H40c-22.1 0-40 17.9-40 40s17.9 40 40 40h944c22.1 0 40-17.9 40-40s-17.9-40-40-40z m-752 0V584c0-37.6 7.4-74.1 22-108.5 14.2-33.3 34.4-63.3 60.3-89.2 25.8-25.8 55.8-46.1 89.2-60.3 34.4-14.6 70.9-22 108.5-22s74.1 7.4 108.5 22c33.3 14.2 63.3 34.4 89.2 60.3 25.8 25.8 46.1 55.8 60.3 89.2 14.6 34.4 22 70.9 22 108.5v360H232z" p-id="2167"></path><path d="M651 586H519.6L549 375 373 662h131.4L475 873z" p-id="2168"></path></svg>