<?xml version="1.0" standalone="no"?><!DOCTYPE svg PUBLIC "-//W3C//DTD SVG 1.1//EN" "http://www.w3.org/Graphics/SVG/1.1/DTD/svg11.dtd"><svg t="1589041947229" class="icon" viewBox="0 0 1118 1024" version="1.1" xmlns="http://www.w3.org/2000/svg" p-id="5348" xmlns:xlink="http://www.w3.org/1999/xlink" width="218.359375" height="200"><defs><style type="text/css"></style></defs><path d="M1104.646977 900.02641l-470.382471-852.445951h-0.134155A85.107645 85.107645 0 0 0 558.547741 0c-34.849667 0-64.813841 21.800257-78.151127 53.083626L14.771072 896.815064a81.890709 81.890709 0 0 0-14.748713 47.169608c0 44.081238 34.150941 79.82248 76.3009 79.82248 0.612084 0 1.224168-0.036334 1.836253-0.044719v0.167694H1039.844315c0.905549 0.025154 1.811098 0.069873 2.725032 0.069873s1.811098-0.033539 2.719443-0.069873l10.972796-1.246527c35.165492-6.749695 61.817703-38.955383 61.817703-77.698352a81.13888 81.13888 0 0 0-13.432312-44.967223z m-612.388787-576.896291c0-35.925706 27.331374-65.043024 60.887-65.043024 33.698167 0 60.887 29.117318 60.887001 65.043024v335.254415c0 35.839064-27.188833 65.040229-60.887001 65.040229-33.555627 0-60.887-29.19278-60.887-65.040229V323.130119z m65.568466 582.997568c-31.828375 0-57.658885-27.026729-57.658885-60.389507 0-33.30129 25.83051-60.193864 57.658885-60.193864s57.647706 26.892574 57.647705 60.193864-25.822125 60.389507-57.647705 60.389507z" p-id="5349"></path></svg>